<svg xmlns="http://www.w3.org/2000/svg" viewBox="0 0 1200 630" role="img" aria-labelledby="title desc">
  <title id="title">CoinPlotXAI Inc. share card</title>
  <desc id="desc">Original dark AI crypto intelligence preview card for CoinPlotXAI Inc.</desc>
  <defs>
    <linearGradient id="bg" x1="0" x2="1" y1="0" y2="1">
      <stop offset="0" stop-color="#06101f"/>
      <stop offset="0.45" stop-color="#071828"/>
      <stop offset="1" stop-color="#020711"/>
    </linearGradient>
    <linearGradient id="line" x1="0" x2="1">
      <stop offset="0" stop-color="#36e58f"/>
      <stop offset="0.52" stop-color="#6edff6"/>
      <stop offset="1" stop-color="#ffd166"/>
    </linearGradient>
    <filter id="glow" x="-40%" y="-40%" width="180%" height="180%">
      <feGaussianBlur stdDeviation="16" result="blur"/>
      <feColorMatrix in="blur" type="matrix" values="0 0 0 0 0.12 0 0 0 0 0.95 0 0 0 0 1 0 0 0 .55 0"/>
      <feBlend in="SourceGraphic"/>
    </filter>
  </defs>
  <rect width="1200" height="630" fill="url(#bg)"/>
  <g opacity=".18">
    <path d="M0 120h1200M0 230h1200M0 340h1200M0 450h1200M0 560h1200M120 0v630M280 0v630M440 0v630M600 0v630M760 0v630M920 0v630M1080 0v630" stroke="#6edff6" stroke-width="1"/>
  </g>
  <circle cx="970" cy="126" r="170" fill="#36e58f" opacity=".11"/>
  <circle cx="955" cy="132" r="92" fill="#6edff6" opacity=".18"/>
  <circle cx="1010" cy="410" r="130" fill="#ffd166" opacity=".10"/>
  <g filter="url(#glow)">
    <rect x="70" y="70" width="1060" height="490" rx="34" fill="#0d1627" opacity=".82" stroke="url(#line)" stroke-width="2"/>
    <path d="M120 170h280M120 225h440M120 280h360" stroke="url(#line)" stroke-width="9" stroke-linecap="round"/>
    <rect x="730" y="155" width="300" height="72" rx="18" fill="#111d32" stroke="#36e58f" opacity=".95"/>
    <rect x="730" y="258" width="300" height="72" rx="18" fill="#111d32" stroke="#6edff6" opacity=".95"/>
    <rect x="730" y="361" width="300" height="72" rx="18" fill="#111d32" stroke="#ffd166" opacity=".95"/>
  </g>
  <text x="120" y="142" fill="#36e58f" font-family="Inter, Arial, sans-serif" font-size="28" font-weight="800" letter-spacing="5">COINPLOTXAI INC.</text>
  <text x="120" y="362" fill="#f5f8ff" font-family="Inter, Arial, sans-serif" font-size="74" font-weight="900">AI Crypto Intelligence</text>
  <text x="120" y="424" fill="#9daac0" font-family="Inter, Arial, sans-serif" font-size="28">Scam Shield · Wallet Intel · Whale Alerts · Sports Edge</text>
  <text x="120" y="492" fill="#f5f8ff" font-family="Inter, Arial, sans-serif" font-size="24">Educational only — not financial advice.</text>
  <text x="768" y="200" fill="#f5f8ff" font-family="Inter, Arial, sans-serif" font-size="28" font-weight="800">Risk context</text>
  <text x="768" y="303" fill="#f5f8ff" font-family="Inter, Arial, sans-serif" font-size="28" font-weight="800">Public data</text>
  <text x="768" y="406" fill="#f5f8ff" font-family="Inter, Arial, sans-serif" font-size="28" font-weight="800">Platform-first</text>
</svg>
