<svg xmlns="http://www.w3.org/2000/svg" viewBox="0 0 640 420" role="img" aria-labelledby="title desc">
  <title id="title">CoinPilotX country intelligence visual</title>
  <desc id="desc">Original global crypto intelligence visual.</desc>
  <defs><linearGradient id="c" x1="0" y1="0" x2="1" y2="1"><stop offset="0" stop-color="#36e58f"/><stop offset="1" stop-color="#6edff6"/></linearGradient></defs>
  <rect width="640" height="420" rx="34" fill="#08111f"/>
  <circle cx="320" cy="210" r="132" fill="#0d1627" stroke="url(#c)" stroke-width="6"/>
  <path d="M188 210h264M320 78c46 48 70 92 70 132s-24 84-70 132M320 78c-46 48-70 92-70 132s24 84 70 132M214 148h212M214 272h212" fill="none" stroke="#6edff6" stroke-width="4" opacity=".72"/>
  <g fill="#ffd166">
    <circle cx="414" cy="128" r="9"/><circle cx="258" cy="260" r="9"/><circle cx="352" cy="312" r="9"/><circle cx="288" cy="142" r="9"/>
  </g>
  <rect x="84" y="318" width="472" height="50" rx="18" fill="#111d32" stroke="#36e58f"/>
  <text x="130" y="351" fill="#f5f8ff" font-family="Arial, sans-serif" font-size="22" font-weight="700">20+ Country Crypto Profiles</text>
</svg>
