<svg xmlns="http://www.w3.org/2000/svg" viewBox="0 0 800 520"><defs><linearGradient id="b" x1="0" x2="1" y1="0" y2="1"><stop stop-color="#07130f"/><stop offset="1" stop-color="#172337"/></linearGradient><radialGradient id="g" cx=".22" cy=".25" r=".7"><stop stop-color="#36e58f" stop-opacity=".42"/><stop offset="1" stop-color="#36e58f" stop-opacity="0"/></radialGradient></defs><rect width="800" height="520" fill="url(#b)"/><rect width="800" height="520" fill="url(#g)"/><path d="M90 110v300M210 110v300M330 110v300M470 110v300M590 110v300M710 110v300" stroke="#fff" stroke-opacity=".12" stroke-width="4"/><path d="M194 260c96-132 316-132 412 0-96 132-316 132-412 0Z" fill="#3b271b" stroke="#ffd166" stroke-opacity=".7" stroke-width="10"/><path d="M346 260h108M374 236v48M400 236v48M426 236v48" stroke="#fff" stroke-opacity=".8" stroke-width="7" stroke-linecap="round"/><path d="M100 426h188M512 82h188" stroke="#6edff6" stroke-opacity=".45" stroke-width="10" stroke-linecap="round"/></svg>
